<svg id="Calque_1" data-name="Calque 1" xmlns="http://www.w3.org/2000/svg" viewBox="0 0 208 26"><defs><style>.cls-1{fill:#164194}</style></defs><path class="cls-1" d="M153.23 9.73v8.37c0 1.93.14 4.37-2.85 4.37s-2.85-2.44-2.85-4.37V9.73h-4.08v10c0 2.32 1.12 6.18 5.39 6.18a6.36 6.36 0 0 0 4.36-1.73h.05l.21 1.41h3.85V9.73h-4.08M179.78 9.73v8.37c0 1.93.15 4.37-2.85 4.37s-2.85-2.44-2.85-4.37V9.73H170v10c0 2.32 1.11 6.18 5.38 6.18a6.37 6.37 0 0 0 4.37-1.73h.05l.2 1.41h3.85V9.73h-4.07M190.13 15.88a3.75 3.75 0 0 1 7.47 0zm3.74-6.65a8 8 0 0 0-8 8.38c0 4.22 3.18 8.44 8 8.44 5.69 0 7.08-3.88 7.67-5.27h-4.35a3.25 3.25 0 0 1-3.19 1.89 3.89 3.89 0 0 1-3.88-3.88h11.68v-.71c0-5.56-3.73-8.85-7.88-8.85M30.92 9.36h-.59a5 5 0 0 0-4.22 2L26 9.79h-4v15.79h4.07v-8.42c.12-2.53 1.12-4.24 4.81-4.24zM56 22.7c-1.74 0-3.75-1.39-3.75-5.11s2-5.07 3.75-5.07 3.75 1.34 3.75 5.07-2 5.11-3.75 5.11m3.57-11.81a6.69 6.69 0 0 0-4.56-1.78c-4.25 0-6.91 4-6.91 8.5S50.8 26 55.05 26a6.05 6.05 0 0 0 4.45-2l.24 1.55h3.95V4h-4.08zM78.45 20.71v-8.35h2.9V9.73h-2.9V4.56h-4.08v5.17H72v2.63h2.35v7.86c0 2.66-.15 5.36 4.22 5.36h2.8v-3h-.9c-1.89 0-2-.84-2-1.89M165.21 20.71v-8.35h2.91V9.73h-2.91V4.56h-4.07v5.17h-2.36v2.63h2.36v7.86c0 2.66-.15 5.36 4.22 5.36h2.94v-3h-1.05c-1.88 0-2-.84-2-1.89M66.43 4.01h4.08v3.51h-4.08zM43.3 3.56h-4.89l-1.49 4.19h3.42l2.96-4.19zM203.92 4.01H208v21.57h-4.08zM66.43 9.73h4.08v15.85h-4.08zM129.32 19.3 124.8 4.01h-6.34v21.57h4.07V9.76l4.65 15.82h4.36l4.57-15.82v15.82h4.07V4.01h-6.36l-4.5 15.29zM35 15.88a3.75 3.75 0 0 1 7.47 0zm3.74-6.65a8 8 0 0 0-8 8.38c0 4.22 3.18 8.44 8 8.44 5.69 0 7.08-3.88 7.66-5.27h-4.26a3.27 3.27 0 0 1-3.29 1.89A3.89 3.89 0 0 1 35 18.79h11.66v-.71c0-5.56-3.74-8.85-7.88-8.85M10.75 22.42c-3.89 0-6.2-2.69-6.2-8 0-4.24 1.94-8 6.2-8a4.66 4.66 0 0 1 4.8 3.88h4.36a9 9 0 0 0-9.16-7.48C2.87 2.79 0 9.51 0 14.38c0 5.1 3.11 11.74 10.75 11.74 6.76 0 9.35-5.55 9.35-7.5h-4.55c-.11.76-.79 3.8-4.8 3.8"/><path d="M114.14 19.29 109.36 11a5.19 5.19 0 0 1-4.65 6.26 6.41 6.41 0 0 0-5.13-3 5.19 5.19 0 0 1 7.31-6.64 5.66 5.66 0 0 1 .88.64l-4.83-8.38h-7.26l-4.79 8.29a5.18 5.18 0 0 1 7.74.9 6.42 6.42 0 0 0 0 5.95 5.18 5.18 0 0 1-9.4-3 4.83 4.83 0 0 1 .11-1.08l-4.83 8.36 3.64 6.29h9.56a5.19 5.19 0 0 1-3.09-7.15 6.46 6.46 0 0 0 5.18-2.94 5.19 5.19 0 0 1 2.1 9.65 5.85 5.85 0 0 1-1 .44h9.65z" style="fill:#e30613"/></svg>